<mxfile host="app.diagrams.net" agent="Mozilla/5.0 (Windows NT 10.0; Win64; x64) AppleWebKit/537.36 (KHTML, like Gecko) Chrome/132.0.0.0 Safari/537.36 Edg/132.0.0.0" version="26.1.0">
  <diagram id="C5RBs43oDa-KdzZeNtuy" name="Page-1">
    <mxGraphModel dx="1050" dy="563" grid="1" gridSize="10" guides="1" tooltips="1" connect="1" arrows="1" fold="1" page="1" pageScale="1" pageWidth="827" pageHeight="1169" math="0" shadow="0">
      <root>
        <mxCell id="WIyWlLk6GJQsqaUBKTNV-0" />
        <mxCell id="WIyWlLk6GJQsqaUBKTNV-1" parent="WIyWlLk6GJQsqaUBKTNV-0" />
        <mxCell id="26hgnOmDoBsevOKm9sjL-0" value="Személy" style="html=1;dashed=0;whiteSpace=wrap;" vertex="1" parent="WIyWlLk6GJQsqaUBKTNV-1">
          <mxGeometry x="274" y="480" width="140" height="60" as="geometry" />
        </mxCell>
        <mxCell id="26hgnOmDoBsevOKm9sjL-1" value="Cím" style="ellipse;whiteSpace=wrap;html=1;" vertex="1" parent="WIyWlLk6GJQsqaUBKTNV-1">
          <mxGeometry x="160" y="640" width="100" height="50" as="geometry" />
        </mxCell>
        <mxCell id="26hgnOmDoBsevOKm9sjL-2" value="Születési dátum" style="ellipse;whiteSpace=wrap;html=1;" vertex="1" parent="WIyWlLk6GJQsqaUBKTNV-1">
          <mxGeometry x="430" y="640" width="100" height="50" as="geometry" />
        </mxCell>
        <mxCell id="26hgnOmDoBsevOKm9sjL-3" value="Név" style="ellipse;whiteSpace=wrap;html=1;" vertex="1" parent="WIyWlLk6GJQsqaUBKTNV-1">
          <mxGeometry x="294" y="640" width="100" height="50" as="geometry" />
        </mxCell>
        <mxCell id="26hgnOmDoBsevOKm9sjL-4" value="&lt;u&gt;Azonosító&lt;/u&gt;" style="ellipse;whiteSpace=wrap;html=1;strokeWidth=2;" vertex="1" parent="WIyWlLk6GJQsqaUBKTNV-1">
          <mxGeometry x="294" y="570" width="100" height="50" as="geometry" />
        </mxCell>
        <mxCell id="26hgnOmDoBsevOKm9sjL-6" value="" style="endArrow=none;html=1;rounded=0;entryX=0.5;entryY=1;entryDx=0;entryDy=0;" edge="1" parent="WIyWlLk6GJQsqaUBKTNV-1" target="26hgnOmDoBsevOKm9sjL-4">
          <mxGeometry width="50" height="50" relative="1" as="geometry">
            <mxPoint x="210" y="640" as="sourcePoint" />
            <mxPoint x="260" y="590" as="targetPoint" />
          </mxGeometry>
        </mxCell>
        <mxCell id="26hgnOmDoBsevOKm9sjL-7" value="" style="endArrow=none;html=1;rounded=0;entryX=0.5;entryY=1;entryDx=0;entryDy=0;exitX=0.5;exitY=0;exitDx=0;exitDy=0;" edge="1" parent="WIyWlLk6GJQsqaUBKTNV-1" source="26hgnOmDoBsevOKm9sjL-3" target="26hgnOmDoBsevOKm9sjL-4">
          <mxGeometry width="50" height="50" relative="1" as="geometry">
            <mxPoint x="220" y="650" as="sourcePoint" />
            <mxPoint x="354" y="630" as="targetPoint" />
          </mxGeometry>
        </mxCell>
        <mxCell id="26hgnOmDoBsevOKm9sjL-8" value="" style="endArrow=none;html=1;rounded=0;entryX=0.5;entryY=1;entryDx=0;entryDy=0;exitX=0.5;exitY=0;exitDx=0;exitDy=0;" edge="1" parent="WIyWlLk6GJQsqaUBKTNV-1" source="26hgnOmDoBsevOKm9sjL-2" target="26hgnOmDoBsevOKm9sjL-4">
          <mxGeometry width="50" height="50" relative="1" as="geometry">
            <mxPoint x="354" y="650" as="sourcePoint" />
            <mxPoint x="354" y="630" as="targetPoint" />
          </mxGeometry>
        </mxCell>
        <mxCell id="26hgnOmDoBsevOKm9sjL-9" value="" style="endArrow=none;html=1;rounded=0;exitX=0.5;exitY=0;exitDx=0;exitDy=0;entryX=0.5;entryY=1;entryDx=0;entryDy=0;" edge="1" parent="WIyWlLk6GJQsqaUBKTNV-1" source="26hgnOmDoBsevOKm9sjL-4" target="26hgnOmDoBsevOKm9sjL-0">
          <mxGeometry width="50" height="50" relative="1" as="geometry">
            <mxPoint x="390" y="570" as="sourcePoint" />
            <mxPoint x="440" y="520" as="targetPoint" />
          </mxGeometry>
        </mxCell>
        <mxCell id="26hgnOmDoBsevOKm9sjL-10" value="Útlevél" style="html=1;dashed=0;whiteSpace=wrap;" vertex="1" parent="WIyWlLk6GJQsqaUBKTNV-1">
          <mxGeometry x="760" y="480" width="140" height="60" as="geometry" />
        </mxCell>
        <mxCell id="26hgnOmDoBsevOKm9sjL-11" value="Cím" style="ellipse;whiteSpace=wrap;html=1;" vertex="1" parent="WIyWlLk6GJQsqaUBKTNV-1">
          <mxGeometry x="160" y="640" width="100" height="50" as="geometry" />
        </mxCell>
        <mxCell id="26hgnOmDoBsevOKm9sjL-12" value="Születési dátum" style="ellipse;whiteSpace=wrap;html=1;" vertex="1" parent="WIyWlLk6GJQsqaUBKTNV-1">
          <mxGeometry x="430" y="640" width="100" height="50" as="geometry" />
        </mxCell>
        <mxCell id="26hgnOmDoBsevOKm9sjL-13" value="Név" style="ellipse;whiteSpace=wrap;html=1;" vertex="1" parent="WIyWlLk6GJQsqaUBKTNV-1">
          <mxGeometry x="294" y="640" width="100" height="50" as="geometry" />
        </mxCell>
        <mxCell id="26hgnOmDoBsevOKm9sjL-14" value="&lt;u&gt;Azonosító&lt;/u&gt;" style="ellipse;whiteSpace=wrap;html=1;strokeWidth=2;" vertex="1" parent="WIyWlLk6GJQsqaUBKTNV-1">
          <mxGeometry x="294" y="570" width="100" height="50" as="geometry" />
        </mxCell>
        <mxCell id="26hgnOmDoBsevOKm9sjL-15" value="" style="endArrow=none;html=1;rounded=0;entryX=0.5;entryY=1;entryDx=0;entryDy=0;" edge="1" parent="WIyWlLk6GJQsqaUBKTNV-1" target="26hgnOmDoBsevOKm9sjL-14">
          <mxGeometry width="50" height="50" relative="1" as="geometry">
            <mxPoint x="210" y="640" as="sourcePoint" />
            <mxPoint x="260" y="590" as="targetPoint" />
          </mxGeometry>
        </mxCell>
        <mxCell id="26hgnOmDoBsevOKm9sjL-16" value="" style="endArrow=none;html=1;rounded=0;entryX=0.5;entryY=1;entryDx=0;entryDy=0;exitX=0.5;exitY=0;exitDx=0;exitDy=0;" edge="1" parent="WIyWlLk6GJQsqaUBKTNV-1" source="26hgnOmDoBsevOKm9sjL-13" target="26hgnOmDoBsevOKm9sjL-14">
          <mxGeometry width="50" height="50" relative="1" as="geometry">
            <mxPoint x="220" y="650" as="sourcePoint" />
            <mxPoint x="354" y="630" as="targetPoint" />
          </mxGeometry>
        </mxCell>
        <mxCell id="26hgnOmDoBsevOKm9sjL-17" value="" style="endArrow=none;html=1;rounded=0;entryX=0.5;entryY=1;entryDx=0;entryDy=0;exitX=0.5;exitY=0;exitDx=0;exitDy=0;" edge="1" parent="WIyWlLk6GJQsqaUBKTNV-1" source="26hgnOmDoBsevOKm9sjL-12" target="26hgnOmDoBsevOKm9sjL-14">
          <mxGeometry width="50" height="50" relative="1" as="geometry">
            <mxPoint x="354" y="650" as="sourcePoint" />
            <mxPoint x="354" y="630" as="targetPoint" />
          </mxGeometry>
        </mxCell>
        <mxCell id="26hgnOmDoBsevOKm9sjL-18" value="Típus" style="ellipse;whiteSpace=wrap;html=1;" vertex="1" parent="WIyWlLk6GJQsqaUBKTNV-1">
          <mxGeometry x="645" y="640" width="100" height="50" as="geometry" />
        </mxCell>
        <mxCell id="26hgnOmDoBsevOKm9sjL-19" value="Kibocsátás_dátuma" style="ellipse;whiteSpace=wrap;html=1;" vertex="1" parent="WIyWlLk6GJQsqaUBKTNV-1">
          <mxGeometry x="915" y="640" width="100" height="50" as="geometry" />
        </mxCell>
        <mxCell id="26hgnOmDoBsevOKm9sjL-20" value="Lejárati_dátum" style="ellipse;whiteSpace=wrap;html=1;" vertex="1" parent="WIyWlLk6GJQsqaUBKTNV-1">
          <mxGeometry x="779" y="640" width="100" height="50" as="geometry" />
        </mxCell>
        <mxCell id="26hgnOmDoBsevOKm9sjL-21" value="&lt;u&gt;Útlevélszám&lt;/u&gt;" style="ellipse;whiteSpace=wrap;html=1;strokeWidth=2;" vertex="1" parent="WIyWlLk6GJQsqaUBKTNV-1">
          <mxGeometry x="779" y="570" width="100" height="50" as="geometry" />
        </mxCell>
        <mxCell id="26hgnOmDoBsevOKm9sjL-22" value="" style="endArrow=none;html=1;rounded=0;entryX=0.5;entryY=1;entryDx=0;entryDy=0;" edge="1" parent="WIyWlLk6GJQsqaUBKTNV-1" target="26hgnOmDoBsevOKm9sjL-21">
          <mxGeometry width="50" height="50" relative="1" as="geometry">
            <mxPoint x="695" y="640" as="sourcePoint" />
            <mxPoint x="745" y="590" as="targetPoint" />
          </mxGeometry>
        </mxCell>
        <mxCell id="26hgnOmDoBsevOKm9sjL-23" value="" style="endArrow=none;html=1;rounded=0;entryX=0.5;entryY=1;entryDx=0;entryDy=0;exitX=0.5;exitY=0;exitDx=0;exitDy=0;" edge="1" parent="WIyWlLk6GJQsqaUBKTNV-1" source="26hgnOmDoBsevOKm9sjL-20" target="26hgnOmDoBsevOKm9sjL-21">
          <mxGeometry width="50" height="50" relative="1" as="geometry">
            <mxPoint x="705" y="650" as="sourcePoint" />
            <mxPoint x="839" y="630" as="targetPoint" />
          </mxGeometry>
        </mxCell>
        <mxCell id="26hgnOmDoBsevOKm9sjL-24" value="" style="endArrow=none;html=1;rounded=0;entryX=0.5;entryY=1;entryDx=0;entryDy=0;exitX=0.5;exitY=0;exitDx=0;exitDy=0;" edge="1" parent="WIyWlLk6GJQsqaUBKTNV-1" source="26hgnOmDoBsevOKm9sjL-19" target="26hgnOmDoBsevOKm9sjL-21">
          <mxGeometry width="50" height="50" relative="1" as="geometry">
            <mxPoint x="839" y="650" as="sourcePoint" />
            <mxPoint x="839" y="630" as="targetPoint" />
          </mxGeometry>
        </mxCell>
        <mxCell id="26hgnOmDoBsevOKm9sjL-25" value="" style="endArrow=none;html=1;rounded=0;exitX=0.5;exitY=0;exitDx=0;exitDy=0;entryX=0.5;entryY=1;entryDx=0;entryDy=0;" edge="1" parent="WIyWlLk6GJQsqaUBKTNV-1" source="26hgnOmDoBsevOKm9sjL-21" target="26hgnOmDoBsevOKm9sjL-10">
          <mxGeometry width="50" height="50" relative="1" as="geometry">
            <mxPoint x="550" y="570" as="sourcePoint" />
            <mxPoint x="600" y="520" as="targetPoint" />
          </mxGeometry>
        </mxCell>
        <mxCell id="26hgnOmDoBsevOKm9sjL-26" value="Birtokol" style="rhombus;whiteSpace=wrap;html=1;" vertex="1" parent="WIyWlLk6GJQsqaUBKTNV-1">
          <mxGeometry x="550" y="470" width="80" height="80" as="geometry" />
        </mxCell>
        <mxCell id="26hgnOmDoBsevOKm9sjL-27" value="" style="endArrow=classic;html=1;rounded=0;exitX=1;exitY=0.5;exitDx=0;exitDy=0;entryX=0;entryY=0.5;entryDx=0;entryDy=0;" edge="1" parent="WIyWlLk6GJQsqaUBKTNV-1" source="26hgnOmDoBsevOKm9sjL-0" target="26hgnOmDoBsevOKm9sjL-26">
          <mxGeometry width="50" height="50" relative="1" as="geometry">
            <mxPoint x="550" y="570" as="sourcePoint" />
            <mxPoint x="600" y="520" as="targetPoint" />
          </mxGeometry>
        </mxCell>
        <mxCell id="26hgnOmDoBsevOKm9sjL-28" value="" style="endArrow=classic;html=1;rounded=0;exitX=1;exitY=0.5;exitDx=0;exitDy=0;entryX=0;entryY=0.5;entryDx=0;entryDy=0;" edge="1" parent="WIyWlLk6GJQsqaUBKTNV-1" source="26hgnOmDoBsevOKm9sjL-26" target="26hgnOmDoBsevOKm9sjL-10">
          <mxGeometry width="50" height="50" relative="1" as="geometry">
            <mxPoint x="424" y="520" as="sourcePoint" />
            <mxPoint x="560" y="520" as="targetPoint" />
          </mxGeometry>
        </mxCell>
        <mxCell id="26hgnOmDoBsevOKm9sjL-29" value="" style="endArrow=classic;html=1;rounded=0;entryX=1;entryY=0.5;entryDx=0;entryDy=0;" edge="1" parent="WIyWlLk6GJQsqaUBKTNV-1" target="26hgnOmDoBsevOKm9sjL-26">
          <mxGeometry width="50" height="50" relative="1" as="geometry">
            <mxPoint x="710" y="510" as="sourcePoint" />
            <mxPoint x="745" y="569" as="targetPoint" />
          </mxGeometry>
        </mxCell>
        <mxCell id="26hgnOmDoBsevOKm9sjL-30" value="Kibocsátási_hely" style="ellipse;whiteSpace=wrap;html=1;" vertex="1" parent="WIyWlLk6GJQsqaUBKTNV-1">
          <mxGeometry x="645" y="570" width="100" height="50" as="geometry" />
        </mxCell>
        <mxCell id="26hgnOmDoBsevOKm9sjL-31" value="" style="endArrow=none;html=1;rounded=0;exitX=0.5;exitY=0;exitDx=0;exitDy=0;" edge="1" parent="WIyWlLk6GJQsqaUBKTNV-1" source="26hgnOmDoBsevOKm9sjL-30">
          <mxGeometry width="50" height="50" relative="1" as="geometry">
            <mxPoint x="550" y="570" as="sourcePoint" />
            <mxPoint x="695" y="510" as="targetPoint" />
          </mxGeometry>
        </mxCell>
      </root>
    </mxGraphModel>
  </diagram>
</mxfile>
